<svg xmlns="http://www.w3.org/2000/svg" version="1.1" xmlns:xlink="http://www.w3.org/1999/xlink" xmlns:svgjs="http://svgjs.com/svgjs" width="512" height="512" x="0" y="0" viewBox="0 0 60 60" style="enable-background:new 0 0 512 512" xml:space="preserve" class=""><g><g fill="#000" fill-rule="nonzero"><path d="M0 32a9.011 9.011 0 0 0 9 9h10v10a9.011 9.011 0 0 0 9 9h4a9.011 9.011 0 0 0 9-9v-5.889A4.166 4.166 0 0 1 42 45a3.87 3.87 0 0 1 2.475.831A5.9 5.9 0 0 0 48.091 47a4.6 4.6 0 0 0 4.46-2.909 7.464 7.464 0 0 0-1.778-7.8 14.7 14.7 0 0 1-2.13-2.9C47.321 31.232 45.955 29 42 29s-5.321 2.232-6.643 4.39a14.7 14.7 0 0 1-2.13 2.9 7.464 7.464 0 0 0-1.778 7.8 4.6 4.6 0 0 0 4.46 2.91A5.628 5.628 0 0 0 39 46.163V51a7.008 7.008 0 0 1-7 7h-4a7.008 7.008 0 0 1-7-7V41a2 2 0 0 0-2-2H9a7.008 7.008 0 0 1-7-7v-4a7.008 7.008 0 0 1 7-7h10a2 2 0 0 0 2-2V9a7.008 7.008 0 0 1 7-7h4a7.008 7.008 0 0 1 7 7v7.656a4.578 4.578 0 0 0-3.961-1.59 4.5 4.5 0 0 0-3.313 2.52 7.641 7.641 0 0 0-.712 4.625A7.643 7.643 0 0 0 33 26.449a4.634 4.634 0 0 0 3.316 1.526c.191 0 .383-.014.572-.041a4.5 4.5 0 0 0 3.313-2.52A7.315 7.315 0 0 0 41 22V9a9.011 9.011 0 0 0-9-9h-4a9.011 9.011 0 0 0-9 9v10H9a9.011 9.011 0 0 0-9 9zm35.909 13a2.608 2.608 0 0 1-2.609-1.67 5.549 5.549 0 0 1 1.337-5.62 16.487 16.487 0 0 0 2.428-3.275C38.329 32.366 39.166 31 42 31s3.671 1.366 4.937 3.435a16.487 16.487 0 0 0 2.428 3.275 5.549 5.549 0 0 1 1.335 5.62A2.608 2.608 0 0 1 48.091 45a3.927 3.927 0 0 1-2.519-.841 6.084 6.084 0 0 0-7.144 0 3.927 3.927 0 0 1-2.519.841zm2.523-20.52a2.3 2.3 0 0 1-4 .575 5.636 5.636 0 0 1-1.44-3.128 5.624 5.624 0 0 1 .5-3.407 2.56 2.56 0 0 1 1.828-1.474c1.614-.229 3.263 1.613 3.61 4.027.043.301.066.605.067.91V22a5.289 5.289 0 0 1-.565 2.48z" fill="#3730a3" data-original="#000000" class="" opacity="1"></path><path d="M26.034 25.67c-1.985.962-2.621 3.763-1.419 6.245a5.11 5.11 0 0 0 4.337 3.08c.5.002.994-.11 1.444-.327 1.985-.962 2.621-3.764 1.418-6.244s-3.795-3.716-5.78-2.754zm3.49 7.2c-.978.474-2.4-.364-3.109-1.827s-.484-3.1.491-3.572a1.35 1.35 0 0 1 .6-.133 3.171 3.171 0 0 1 2.512 1.96c.706 1.462.482 3.102-.494 3.571zM47.112 27.934c.19.027.38.04.572.041A4.638 4.638 0 0 0 51 26.449a7.643 7.643 0 0 0 1.986-4.238 7.641 7.641 0 0 0-.712-4.625 4.5 4.5 0 0 0-3.313-2.52c-2.725-.392-5.364 2.175-5.874 5.723a7.656 7.656 0 0 0 .712 4.625 4.5 4.5 0 0 0 3.313 2.52zm-2.045-6.861c.328-2.277 1.816-4.047 3.335-4.047.092 0 .184.007.275.02a2.56 2.56 0 0 1 1.828 1.474 5.624 5.624 0 0 1 .5 3.407 5.636 5.636 0 0 1-1.44 3.128 2.3 2.3 0 0 1-4-.575 5.631 5.631 0 0 1-.498-3.407zM53.6 34.668c.45.217.944.33 1.444.327a5.111 5.111 0 0 0 4.337-3.081c1.2-2.481.566-5.282-1.419-6.244s-4.577.274-5.78 2.754-.563 5.282 1.418 6.244zm2.9-7.331a1.35 1.35 0 0 1 .6.133c.975.472 1.2 2.109.491 3.572s-2.134 2.3-3.108 1.827-1.2-2.109-.491-3.572a3.171 3.171 0 0 1 2.508-1.96zM6 28a3 3 0 0 1 3-3 1 1 0 0 0 0-2 5.006 5.006 0 0 0-5 5 1 1 0 0 0 2 0zM14 25a1 1 0 0 0 0-2h-1a1 1 0 0 0 0 2z" fill="#3730a3" data-original="#000000" class="" opacity="1"></path></g></g></svg>
